<svg width="51" height="51" viewBox="0 0 51 51" fill="none" xmlns="http://www.w3.org/2000/svg">
<rect width="51" height="51" rx="5" fill="#CC0000" fill-opacity="0.17"/>
<path d="M26 13C18.8317 13 13 18.8317 13 26C13 33.1683 18.8317 39 26 39C33.1683 39 39 33.1683 39 26C39 18.8317 33.1683 13 26 13ZM26 33.3974C25.1139 33.3974 24.2348 33.2373 23.4108 32.9297L32.9297 23.4111C33.2373 24.2348 33.3974 25.1139 33.3974 26C33.3974 30.0788 30.0788 33.3974 26 33.3974ZM26 18.6026C26.8861 18.6026 27.7652 18.7627 28.5892 19.0703L19.0703 28.5889C18.7627 27.7652 18.6026 26.8861 18.6026 26C18.6026 21.9212 21.9212 18.6026 26 18.6026Z" fill="#FF3939"/>
<path d="M28.5892 19.0703L26 21.6596V30.3404L32.9297 23.4111C33.2373 24.2348 33.3974 25.1139 33.3974 26C33.3974 30.0788 30.0788 33.3974 26 33.3974V39C33.1683 39 39 33.1683 39 26C39 18.8317 33.1683 13 26 13V18.6026C26.8861 18.6026 27.7652 18.7627 28.5892 19.0703Z" fill="#B00000"/>
</svg>
