<svg width="53" height="52" viewBox="0 0 53 52" fill="none" xmlns="http://www.w3.org/2000/svg">
<rect x="2" y="1" width="51" height="51" rx="5" fill="#3C88EF" fill-opacity="0.15"/>
<path fill-rule="evenodd" clip-rule="evenodd" d="M26.873 16.4469C25.5025 16 24.5039 14.7598 24.5039 13.3165C24.5039 11.4989 26.084 10 28 10C29.916 10 31.4961 11.4989 31.4961 13.3165C31.4961 14.7598 30.4975 16 29.127 16.4469V21.335C30.8401 21.6536 32.2895 22.6843 33.119 24.087L38.0149 22.5795C38.0419 21.2046 38.9796 19.9195 40.429 19.4726H40.4335C42.2548 18.9145 44.2384 19.8746 44.8312 21.6023C45.4218 23.33 44.412 25.216 42.5907 25.7783C41.1413 26.2231 39.5882 25.7078 38.7136 24.6108L33.82 26.1183C33.8493 26.3386 33.8651 26.5631 33.8651 26.7898C33.8651 28.2459 33.2655 29.5781 32.2873 30.5702L35.319 34.526C35.8329 34.3764 36.3762 34.3443 36.8969 34.4234C37.9135 34.6308 38.6596 35.067 39.178 35.7427C40.3028 37.2139 39.9534 39.3051 38.4026 40.3742C36.8518 41.4412 34.6473 41.1098 33.5202 39.6387C32.6276 38.4712 32.6637 36.9124 33.4932 35.7833L30.466 31.8318C29.7176 32.1654 28.8791 32.3514 28 32.3514C27.1209 32.3514 26.2824 32.1654 25.534 31.8318L22.5068 35.7833C23.3363 36.9124 23.3724 38.4712 22.4798 39.6387C21.3527 41.1098 19.1482 41.4412 17.5974 40.3742C16.0466 39.3051 15.6972 37.2139 16.822 35.7427C17.3855 35.0071 18.2173 34.556 19.1031 34.4234C19.6802 34.3657 20.2031 34.402 20.6765 34.5303L23.7127 30.5702C22.7345 29.5781 22.1349 28.2459 22.1349 26.7898C22.1349 26.5631 22.1507 26.3386 22.18 26.1183L17.2864 24.6108C16.4118 25.7078 14.8587 26.2231 13.4093 25.7783C11.588 25.216 10.5782 23.33 11.1688 21.6023C11.7616 19.8746 13.7452 18.9145 15.5665 19.4726H15.571C17.0204 19.9195 17.9581 21.2046 17.9851 22.5795L22.881 24.087C23.7105 22.6843 25.1621 21.6536 26.873 21.335V16.4469Z" fill="#2F80ED"/>
</svg>
