<svg width="51" height="51" viewBox="0 0 51 51" fill="none" xmlns="http://www.w3.org/2000/svg">
<rect width="51" height="51" rx="5" fill="#009D55" fill-opacity="0.1"/>
<path d="M27.6996 37.9005C27.6998 38.1901 27.7739 38.4749 27.9151 38.7279C28.0562 38.9808 28.2597 39.1935 28.5061 39.3458C28.7525 39.498 29.0337 39.5848 29.3231 39.5978C29.6125 39.6109 29.9004 39.5497 30.1595 39.4203L36.9595 36.0203C37.2418 35.8792 37.4793 35.6623 37.6454 35.3939C37.8114 35.1254 37.8994 34.8161 37.8996 34.5005V24.7017C37.8995 24.412 37.8253 24.1272 37.6841 23.8742C37.543 23.6213 37.3396 23.4086 37.0931 23.2563C36.8467 23.1041 36.5655 23.0173 36.2761 23.0043C35.9867 22.9913 35.6988 23.0524 35.4397 23.1819L28.6397 26.5819C28.3574 26.7229 28.1199 26.9398 27.9538 27.2083C27.7878 27.4767 27.6998 27.786 27.6996 28.1017V37.9005ZM34.8583 19.6697C35.1403 19.5283 35.3774 19.3113 35.5431 19.0429C35.7088 18.7745 35.7966 18.4653 35.7966 18.1499C35.7966 17.8344 35.7088 17.5252 35.5431 17.2568C35.3774 16.9884 35.1403 16.7714 34.8583 16.6301L26.7595 12.5807C26.5235 12.4627 26.2634 12.4014 25.9996 12.4014C25.7358 12.4014 25.4757 12.4627 25.2397 12.5807L17.1409 16.6301C16.8589 16.7714 16.6218 16.9884 16.4561 17.2568C16.2904 17.5252 16.2026 17.8344 16.2026 18.1499C16.2026 18.4653 16.2904 18.7745 16.4561 19.0429C16.6218 19.3113 16.8589 19.5283 17.1409 19.6697L25.2397 23.7191C25.4757 23.837 25.7358 23.8984 25.9996 23.8984C26.2634 23.8984 26.5235 23.837 26.7595 23.7191L34.8583 19.6697V19.6697ZM16.5595 23.1819C16.3004 23.0524 16.0125 22.9913 15.7231 23.0043C15.4337 23.0173 15.1525 23.1041 14.9061 23.2563C14.6597 23.4086 14.4562 23.6213 14.3151 23.8742C14.1739 24.1272 14.0998 24.412 14.0996 24.7017V34.5005C14.0998 34.8161 14.1878 35.1254 14.3538 35.3939C14.5199 35.6623 14.7574 35.8792 15.0397 36.0203L21.8397 39.4203C22.0988 39.5497 22.3867 39.6109 22.6761 39.5978C22.9655 39.5848 23.2467 39.498 23.4931 39.3458C23.7396 39.1935 23.943 38.9808 24.0841 38.7279C24.2253 38.4749 24.2995 38.1901 24.2996 37.9005V28.1017C24.2994 27.786 24.2114 27.4767 24.0454 27.2083C23.8793 26.9398 23.6418 26.7229 23.3595 26.5819L16.5595 23.1819V23.1819Z" fill="#009D55"/>
</svg>
