<svg width="51" height="51" viewBox="0 0 51 51" fill="none" xmlns="http://www.w3.org/2000/svg">
<g clip-path="url(#clip0)">
<path d="M35.9584 26.9473H33.793C34.0137 27.5516 34.1343 28.2037 34.1343 28.8834V37.0674C34.1343 37.3508 34.0849 37.6228 33.9952 37.8758H37.5751C38.9124 37.8758 40.0003 36.7879 40.0003 35.4506V30.9892C40.0003 28.7605 38.1871 26.9473 35.9584 26.9473Z" fill="#FE7F00"/>
<path d="M17.8661 28.8834C17.8661 28.2037 17.9867 27.5516 18.2074 26.9473H16.042C13.8132 26.9473 12 28.7605 12 30.9892V35.4507C12 36.7879 13.0879 37.8759 14.4252 37.8759H18.0051C17.9154 37.6228 17.8661 37.3508 17.8661 37.0674V28.8834Z" fill="#FE7F00"/>
<path d="M28.4748 24.8418H23.5244C21.2956 24.8418 19.4824 26.655 19.4824 28.8838V37.0678C19.4824 37.5142 19.8443 37.8762 20.2908 37.8762H31.7084C32.1548 37.8762 32.5168 37.5142 32.5168 37.0678V28.8838C32.5168 26.655 30.7035 24.8418 28.4748 24.8418Z" fill="#FE7F00"/>
<path d="M25.9996 14.124C23.3193 14.124 21.1387 16.3046 21.1387 18.985C21.1387 20.8031 22.1421 22.391 23.6241 23.2246C24.327 23.62 25.1373 23.846 25.9996 23.846C26.8619 23.846 27.6723 23.62 28.3752 23.2246C29.8572 22.391 30.8606 20.8031 30.8606 18.985C30.8606 16.3047 28.68 14.124 25.9996 14.124Z" fill="#FE7F00"/>
<path d="M17.4635 18.6553C15.4589 18.6553 13.8281 20.2861 13.8281 22.2906C13.8281 24.2952 15.4589 25.926 17.4635 25.926C17.972 25.926 18.4562 25.8207 18.896 25.6313C19.6565 25.3039 20.2836 24.7243 20.6716 23.9984C20.9439 23.4888 21.0988 22.9076 21.0988 22.2906C21.0988 20.2861 19.4681 18.6553 17.4635 18.6553Z" fill="#FE7F00"/>
<path d="M34.5358 18.6553C32.5312 18.6553 30.9004 20.2861 30.9004 22.2906C30.9004 22.9076 31.0553 23.4889 31.3277 23.9984C31.7157 24.7244 32.3427 25.304 33.1032 25.6313C33.5431 25.8207 34.0273 25.926 34.5358 25.926C36.5403 25.926 38.1711 24.2952 38.1711 22.2906C38.1711 20.2861 36.5403 18.6553 34.5358 18.6553Z" fill="#FE7F00"/>
</g>
<rect width="51" height="51" rx="5" fill="#FE7F00" fill-opacity="0.2"/>
<defs>
<clipPath id="clip0">
<rect width="28" height="28" fill="white" transform="translate(12 12)"/>
</clipPath>
</defs>
</svg>
