<svg width="223" height="200" viewBox="0 0 223 200" fill="none" xmlns="http://www.w3.org/2000/svg">
<path opacity="0.2" d="M206.227 105.264C206.227 126.599 199.107 146.383 187.177 162.287C180.634 170.821 172.745 178.386 163.701 184.204C149.077 193.902 131.567 199.527 112.71 199.527C60.948 199.527 19 157.244 19 105.264C19 53.0889 60.948 11 112.517 11C131.374 11 148.885 16.6248 163.509 26.1287C172.553 31.9475 180.442 39.5118 186.984 48.046C199.107 64.1445 206.227 83.7342 206.227 105.264Z" fill="#F68F57"/>
<path opacity="0.63" d="M9.59453 44.2051C9.3784 43.5516 9.3784 42.6801 9.59453 42.0266L11.1074 38.7587C11.3236 38.323 11.1074 37.8873 10.6752 37.6694C10.459 37.6694 10.2429 37.6694 10.0268 37.6694L6.78483 39.1944C6.13644 39.4123 5.27192 39.4123 4.62353 39.1944L1.38157 37.6694C0.949311 37.4516 0.51705 37.6695 0.300919 38.1052C0.300919 38.323 0.300919 38.5409 0.300919 38.7587L1.81383 42.0266C2.02996 42.6801 2.02996 43.5516 1.81383 44.2051L0.084789 47.6908C-0.131341 48.1265 0.084789 48.5622 0.51705 48.7801C0.73318 48.7801 0.949311 48.7801 1.16544 48.7801L4.4074 47.2551C5.05579 47.0372 5.92031 47.0372 6.5687 47.2551L10.0268 48.7801C10.459 48.9979 10.8913 48.7801 11.1074 48.3444C11.1074 48.1265 11.1074 47.9087 11.1074 47.6908L9.59453 44.2051Z" fill="url(#paint0_linear)"/>
<path d="M14.5945 135.621C14.3784 134.968 14.3784 134.096 14.5945 133.443L16.1074 130.175C16.3236 129.739 16.1074 129.303 15.6752 129.085C15.459 129.085 15.2429 129.085 15.0268 129.085L11.7848 130.61C11.1364 130.828 10.2719 130.828 9.62353 130.61L6.38157 129.085C5.94931 128.868 5.51705 129.085 5.30092 129.521C5.30092 129.739 5.30092 129.957 5.30092 130.175L6.81383 133.443C7.02996 134.096 7.02996 134.968 6.81383 135.621L5.08479 138.889C4.86866 139.325 5.08479 139.76 5.51705 139.978C5.73318 139.978 5.94931 139.978 6.16544 139.978L9.4074 138.453C10.0558 138.235 10.9203 138.235 11.5687 138.453L14.8107 139.978C15.2429 140.196 15.6752 139.978 15.8913 139.543C15.8913 139.325 15.8913 139.107 15.8913 138.889L14.5945 135.621Z" fill="url(#paint1_linear)"/>
<path d="M221.401 75.793C221.185 75.1394 221.185 74.268 221.401 73.6145L222.914 70.3466C223.13 69.9109 222.914 69.4752 222.482 69.2573C222.266 69.2573 222.05 69.2573 221.833 69.2573L218.591 70.7823C217.943 71.0002 217.079 71.0002 216.43 70.7823L213.188 69.2573C212.756 69.0395 212.324 69.2573 212.108 69.693C212.108 69.9109 212.108 70.1288 212.108 70.3466L213.62 73.6145C213.837 74.268 213.837 75.1394 213.62 75.793L211.891 79.2787C211.675 79.7144 211.891 80.1501 212.324 80.368C212.54 80.368 212.756 80.368 212.972 80.368L216.214 78.843C216.862 78.6251 217.727 78.6251 218.375 78.843L221.617 80.368C222.05 80.5858 222.482 80.368 222.698 79.9323C222.698 79.7144 222.698 79.4966 222.698 79.2787L221.401 75.793Z" fill="url(#paint2_linear)"/>
<path opacity="0.66" d="M188.378 6.62113C188.162 5.96757 188.162 5.09615 188.378 4.44258L189.891 1.17474C190.107 0.739033 189.891 0.303322 189.459 0.0854659C189.243 0.0854659 189.027 0.0854659 188.811 0.0854659L185.569 1.61045C184.92 1.82831 184.056 1.82831 183.407 1.61045L180.165 0.0854659C179.733 -0.13239 179.301 0.0854655 179.085 0.521177C179.085 0.739032 179.085 0.956888 179.085 1.17474L180.598 4.44258C180.814 5.09615 180.814 5.96757 180.598 6.62113L179.085 9.88897C178.869 10.3247 179.085 10.7604 179.517 10.9782C179.733 10.9782 179.949 10.9782 180.165 10.9782L183.407 9.45326C184.056 9.2354 184.92 9.2354 185.569 9.45326L188.811 10.9782C189.243 11.1961 189.675 10.9782 189.891 10.5425C189.891 10.3247 189.891 10.1068 189.891 9.88897L188.378 6.62113Z" fill="url(#paint3_linear)"/>
<path d="M208.867 141.586C208.651 140.932 208.651 140.061 208.867 139.407L210.38 136.14C210.596 135.704 210.38 135.268 209.947 135.05C209.731 135.05 209.515 135.05 209.299 135.05L206.057 136.575C205.409 136.793 204.544 136.793 203.896 136.575L200.654 135.05C200.221 134.832 199.789 135.05 199.573 135.486C199.573 135.704 199.573 135.922 199.573 136.14L201.086 139.407C201.302 140.061 201.302 140.932 201.086 141.586L199.573 144.854C199.357 145.29 199.573 145.725 200.005 145.943C200.221 145.943 200.438 145.943 200.654 145.943L203.896 144.418C204.544 144.2 205.409 144.2 206.057 144.418L209.299 145.943C209.731 146.161 210.163 145.943 210.38 145.507C210.38 145.29 210.38 145.072 210.38 144.854L208.867 141.586Z" fill="url(#paint4_linear)"/>
<path d="M147.062 131.225L117.4 108.745C114.77 106.741 111.228 106.738 108.601 108.742L78.9389 131.225C78.2574 131.74 78.1249 132.705 78.6398 133.384C79.1548 134.065 80.1229 134.192 80.7981 133.683L110.463 111.196C111.983 110.046 114.015 110.043 115.538 111.199L145.203 133.683C145.48 133.896 145.81 133.997 146.134 133.997C146.597 133.997 147.059 133.785 147.361 133.384C147.876 132.705 147.743 131.74 147.062 131.225Z" fill="#2F80ED"/>
<path d="M148.01 86.8286C147.501 86.1503 146.526 86.0146 145.851 86.5295L116.02 109.106C115.342 109.618 115.206 110.586 115.721 111.264C116.02 111.665 116.482 111.875 116.948 111.875C117.275 111.875 117.602 111.773 117.879 111.563L147.711 88.9868C148.389 88.4751 148.524 87.507 148.01 86.8286Z" fill="#2F80ED"/>
<path d="M109.98 109.103L80.1487 86.5271C79.4765 86.0153 78.5022 86.1416 77.9905 86.8261C77.4755 87.5044 77.6112 88.4726 78.2895 88.9844L108.121 111.561C108.398 111.773 108.728 111.875 109.052 111.875C109.514 111.875 109.98 111.665 110.279 111.262C110.794 110.583 110.658 109.615 109.98 109.103Z" fill="#2F80ED"/>
<path d="M146.796 85.1019L141.736 80.887C141.085 80.3443 140.114 80.4275 139.565 81.0812C139.02 81.7349 139.106 82.7062 139.76 83.2519L144.816 87.4669C145.174 87.7629 145.374 88.1977 145.374 88.6539V130.374C145.374 131.222 144.681 131.916 143.833 131.916H82.166C81.3181 131.916 80.6243 131.222 80.6243 130.374V88.6539C80.6243 88.1945 80.8248 87.7629 81.1793 87.4669L86.236 83.2519C86.8897 82.7062 86.9791 81.7349 86.4333 81.0812C85.8876 80.4245 84.9133 80.3382 84.2626 80.8839L79.1998 85.1019C78.1453 85.9869 77.541 87.2819 77.541 88.6539V130.374C77.541 132.924 79.6161 134.999 82.166 134.999H143.833C146.383 134.999 148.458 132.924 148.458 130.374V88.6539C148.458 87.2787 147.853 85.9868 146.796 85.1019Z" fill="#2F80ED"/>
<path d="M140.751 61H85.2507C84.3997 61 83.709 61.6907 83.709 62.5417V92.1047C83.709 92.9557 84.3997 93.6464 85.2507 93.6464C86.1017 93.6464 86.7924 92.9557 86.7924 92.1047V64.0833H139.209V92.12C139.209 92.971 139.9 93.6618 140.751 93.6618C141.602 93.6618 142.293 92.971 142.293 92.12V62.5417C142.292 61.6907 141.602 61 140.751 61Z" fill="#2F80ED"/>
<path d="M113.001 73.333C112.15 73.333 111.459 74.0237 111.459 74.8747V93.3747C111.459 94.2257 112.15 94.9164 113.001 94.9164C113.852 94.9164 114.542 94.2257 114.542 93.3747V74.8747C114.542 74.0237 113.852 73.333 113.001 73.333Z" fill="#2F80ED"/>
<path d="M122.251 82.583H103.751C102.9 82.583 102.209 83.2737 102.209 84.1247C102.209 84.9757 102.9 85.6664 103.751 85.6664H122.251C123.102 85.6664 123.792 84.9757 123.792 84.1247C123.792 83.2737 123.102 82.583 122.251 82.583Z" fill="#2F80ED"/>
<defs>
<linearGradient id="paint0_linear" x1="24.7661" y1="41.4613" x2="4.04558" y2="51.2627" gradientUnits="userSpaceOnUse">
<stop stop-color="#1970E2"/>
<stop offset="0.0001" stop-color="#1970E2"/>
<stop offset="1" stop-color="#86BAFF"/>
</linearGradient>
<linearGradient id="paint1_linear" x1="2.90394" y1="134.502" x2="16.2296" y2="134.502" gradientUnits="userSpaceOnUse">
<stop stop-color="#E63756"/>
<stop offset="1" stop-color="#FC97A9"/>
</linearGradient>
<linearGradient id="paint2_linear" x1="209.711" y1="74.7821" x2="223.036" y2="74.7821" gradientUnits="userSpaceOnUse">
<stop stop-color="#F68F57"/>
<stop offset="1" stop-color="#FAC7AB"/>
</linearGradient>
<linearGradient id="paint3_linear" x1="176.944" y1="5.50187" x2="190.013" y2="5.50187" gradientUnits="userSpaceOnUse">
<stop stop-color="#E63756"/>
<stop offset="1" stop-color="#FC97A9"/>
</linearGradient>
<linearGradient id="paint4_linear" x1="223.776" y1="138.767" x2="203.456" y2="148.379" gradientUnits="userSpaceOnUse">
<stop stop-color="#1970E2"/>
<stop offset="0.0001" stop-color="#1970E2"/>
<stop offset="1" stop-color="#86BAFF"/>
</linearGradient>
</defs>
</svg>
