<svg width="7" height="15" viewBox="0 0 7 15" fill="none" xmlns="http://www.w3.org/2000/svg">
<path d="M5.83798 0.000212669C5.68858 -0.000295639 5.54097 0.0326767 5.40599 0.0967054C5.27101 0.160734 5.15209 0.254193 5.05798 0.370214L0.227976 6.37021C0.0808945 6.54915 0.000488281 6.77359 0.000488281 7.00521C0.000488281 7.23684 0.0808945 7.46128 0.227976 7.64021L5.22798 13.6402C5.39772 13.8444 5.64163 13.9729 5.90605 13.9972C6.17048 14.0216 6.43376 13.94 6.63798 13.7702C6.84219 13.6005 6.97062 13.3566 6.995 13.0921C7.01938 12.8277 6.93772 12.5644 6.76798 12.3602L2.29798 7.00021L6.61798 1.64021C6.74026 1.49343 6.81794 1.31469 6.84182 1.12514C6.86569 0.93559 6.83478 0.743165 6.75272 0.570638C6.67067 0.39811 6.54091 0.252699 6.3788 0.151608C6.21669 0.050518 6.02901 -0.00201893 5.83798 0.000212669Z" fill="#3E4756"/>
</svg>
