<svg width="92" height="27" viewBox="0 0 92 27" fill="none" xmlns="http://www.w3.org/2000/svg">
<rect y="4.28613" width="12.0505" height="12.0505" rx="2" transform="rotate(-20.8341 0 4.28613)" fill="white"/>
<rect x="15.4688" y="2.78809" width="7.46069" height="7.46069" rx="2" transform="rotate(-20.8341 15.4688 2.78809)" fill="#06D375"/>
<rect x="8.53174" y="17.2461" width="9.70872" height="9.70872" rx="2" transform="rotate(-20.8341 8.53174 17.2461)" fill="#E64C24"/>
<path d="M44.16 20H46.96V6.04H44.16V11.78H38.18V6.04H35.38V20H38.18V14.06H44.16V20ZM57.1159 10.38C57.1159 11.64 56.4159 12.46 54.8559 12.46H52.5159V8.36H54.8559C56.4159 8.36 57.1159 9.14 57.1159 10.38ZM49.7159 6.04V20H52.5159V14.56H53.8359L56.9159 20H60.1559L56.8159 14.34C59.0559 13.74 59.9959 12.02 59.9959 10.32C59.9959 7.98 58.3159 6.04 54.9559 6.04H49.7159ZM62.5284 20H65.3284V10.92L69.0884 20H71.2084L74.9484 10.92V20H77.7484V6.04H74.5884L70.1484 16.42L65.7084 6.04H62.5284V20ZM90.2767 15.96C90.2767 11.04 83.1167 12.6 83.1167 9.8C83.1167 8.66 83.9367 8.12 85.0367 8.16C86.2367 8.18 86.9767 8.9 87.0367 9.82H90.1167C89.9367 7.3 87.9767 5.84 85.1167 5.84C82.2367 5.84 80.1967 7.36 80.1967 9.88C80.1767 14.94 87.3767 13.12 87.3767 16.14C87.3767 17.14 86.5967 17.84 85.2767 17.84C83.9767 17.84 83.2367 17.1 83.1567 15.98H80.1567C80.1967 18.62 82.4367 20.14 85.3367 20.14C88.5167 20.14 90.2767 18.16 90.2767 15.96Z" fill="white"/>
</svg>
