<svg width="5" height="20" viewBox="0 0 5 20" fill="none" xmlns="http://www.w3.org/2000/svg">
<path d="M0.732232 0.732232C-0.244077 1.70854 -0.244077 3.29146 0.732232 4.26777C1.70854 5.24408 3.29146 5.24408 4.26777 4.26777C5.24408 3.29146 5.24408 1.70854 4.26777 0.732232C3.2915 -0.244077 1.70858 -0.244077 0.732232 0.732232Z" fill="#7E8A9D"/>
<path d="M0.732232 8.23223C-0.244077 9.20854 -0.244077 10.7915 0.732232 11.7678C1.70854 12.7441 3.29146 12.7441 4.26777 11.7678C5.24408 10.7915 5.24408 9.20854 4.26777 8.23223C3.2915 7.25592 1.70858 7.25592 0.732232 8.23223" fill="#7E8A9D"/>
<path d="M0.732232 15.7322C-0.244077 16.7085 -0.244077 18.2915 0.732232 19.2678C1.70854 20.2441 3.29146 20.2441 4.26777 19.2678C5.24408 18.2915 5.24408 16.7085 4.26777 15.7322C3.2915 14.7559 1.70858 14.7559 0.732232 15.7322" fill="#7E8A9D"/>
</svg>
